<svg width="764" height="450" viewBox="0 0 764 450" fill="none" xmlns="http://www.w3.org/2000/svg">
<g clip-path="url(#clip0)">
<path d="M384.991 434.047C508.93 434.047 609.402 336.882 609.402 217.023C609.402 97.1647 508.93 0 384.991 0C261.053 0 160.581 97.1647 160.581 217.023C160.581 336.882 261.053 434.047 384.991 434.047Z" fill="#F2F2F2"/>
<path d="M642.226 50.5495L628.503 83.9692C631.158 95.5938 633.755 108.703 635.84 122.663L660.274 73.2123L660.674 73.8085C655.076 64.4525 648.711 56.3806 641.804 49.9989L642.226 50.5495Z" fill="#F55E00"/>
<path d="M628.033 81.9307L641.327 49.5583C633.532 42.4706 625.058 37.5355 616.218 35.3573C615.758 35.244 615.3 35.1449 614.842 35.0475C615.909 38.1154 622.045 56.1625 628.033 81.9307Z" fill="#F55E00"/>
<path d="M684.183 153.624L684.492 154.365C684.164 149.319 683.65 144.328 682.948 139.39L640.471 190.729L640.316 190.395C640.224 193.425 640.087 196.413 639.903 199.361L684.183 153.624Z" fill="#F55E00"/>
<path d="M676.43 110.439L676.787 111.12C673.059 98.3432 667.78 86.0388 661.059 74.4634L636.159 124.856C638.051 137.948 639.317 150.582 639.957 162.757L676.43 110.439Z" fill="#F55E00"/>
<path d="M558.357 77.7723C555.192 86.7191 552.971 95.9521 551.726 105.331L638.41 154.306C637.635 143.757 636.461 133.663 635.1 124.336L558.263 78.5653L558.357 77.7723Z" fill="#F55E00"/>
<path d="M550.581 116.274L550.66 115.476L638.988 163.775C638.863 161.184 638.712 158.615 638.536 156.068L551.532 106.912L551.616 106.116C551.175 109.42 550.83 112.807 550.581 116.274Z" fill="#F55E00"/>
<path d="M682.479 137.725L682.811 138.44C681.504 129.497 679.575 120.649 677.036 111.958L640.07 164.983C640.45 173.104 640.545 180.988 640.356 188.636L682.479 137.725Z" fill="#F55E00"/>
<path d="M635.527 232.796C632.003 249.709 626.598 264.791 619.359 277.869C629.482 269.522 669.67 234.174 681.564 190.016L635.527 232.796Z" fill="#F55E00"/>
<path d="M552.945 154.631C554.839 163.112 557.318 171.461 560.366 179.621L560.504 178.757L634.734 230.971C636.614 221.489 637.905 211.906 638.599 202.274L552.945 154.631Z" fill="#F55E00"/>
<path d="M627.076 82.1551C620.59 54.2772 613.943 35.5395 613.847 35.2709L614.263 34.9261C600.682 32.2267 588.188 36.5134 577.903 46.1407L627.076 82.1551Z" fill="#F55E00"/>
<path d="M639.747 201.641C639.683 202.555 639.623 203.472 639.55 204.378C638.867 213.061 637.695 221.702 636.04 230.262L681.641 187.888L681.925 188.622C683.952 180.831 684.95 172.822 684.896 164.789C684.86 161.632 684.746 158.489 684.555 155.359L639.747 201.641Z" fill="#F55E00"/>
<path d="M634.823 122.475C632.753 108.676 630.181 95.7219 627.555 84.2331L577.254 47.3921L577.385 46.6246C569.705 54.0003 563.29 64.3859 558.613 77.0775L634.823 122.475Z" fill="#F55E00"/>
<path d="M634.428 232.475L560.741 180.643C579.004 229.581 614.619 276.595 616.9 279.579C625.34 265.252 630.93 249.185 634.428 232.475Z" fill="#F55E00"/>
<path d="M638.677 200.627L638.719 200.584C639.486 188.906 639.602 177.196 639.066 165.506L550.521 117.088C550.205 121.787 550.074 126.619 550.125 131.583C550.262 138.682 551.068 145.755 552.534 152.713L638.677 200.627Z" fill="#F55E00"/>
<path d="M763.353 236.549L730.742 253.824C725.121 264.415 718.476 276.114 710.874 288.151L762.306 265.136L762.222 265.842C764.081 255.183 764.502 245.04 763.391 235.865L763.353 236.549Z" fill="#F55E00"/>
<path d="M731.725 251.964L763.314 235.231C761.986 224.964 758.714 215.936 753.341 208.806C753.062 208.435 752.775 208.076 752.487 207.719C751.285 210.74 744.108 228.424 731.725 251.964Z" fill="#F55E00"/>
<path d="M727.688 341.816L727.437 342.577C730.513 338.489 733.408 334.327 736.125 330.091L669.55 343.431L669.651 343.079C667.582 345.356 665.505 347.572 663.42 349.729L727.688 341.816Z" fill="#F55E00"/>
<path d="M750.198 303.773L750.025 304.518C755.58 292.378 759.628 279.645 762.086 266.584L709.674 290.037C702.496 301.288 695.139 311.799 687.602 321.571L750.198 303.773Z" fill="#F55E00"/>
<path d="M680.804 205.783C672.466 210.722 664.665 216.463 657.521 222.918L691.984 314.108C698.345 305.504 704.097 297.006 709.2 288.983L680.209 206.337L680.804 205.783Z" fill="#F55E00"/>
<path d="M649.422 230.641L650.009 230.075L686.184 321.757C687.797 319.684 689.375 317.613 690.919 315.543L656.329 224.017L656.919 223.456C654.4 225.729 651.901 228.124 649.422 230.641Z" fill="#F55E00"/>
<path d="M736.861 328.52L736.646 329.275C741.537 321.581 745.886 313.577 749.663 305.316L686.221 323.355C681.157 329.844 676.031 335.975 670.842 341.749L736.861 328.52Z" fill="#F55E00"/>
<path d="M637.998 372.781C624.129 383.634 610.02 391.916 595.818 397.524C609.12 397.339 663.385 394.903 701.67 368.23L637.998 372.781Z" fill="#F55E00"/>
<path d="M625.946 261.641C621.811 269.341 618.214 277.301 615.179 285.466L615.856 284.885L638.59 370.887C646.293 364.743 653.607 358.158 660.494 351.168L625.946 261.641Z" fill="#F55E00"/>
<path d="M730.84 251.546C744.231 226.075 751.469 207.543 751.573 207.277L752.12 207.268C743.441 196.812 730.991 192.407 716.72 193.478L730.84 251.546Z" fill="#F55E00"/>
<path d="M661.795 351.389C661.143 352.053 660.492 352.723 659.839 353.376C653.586 359.642 646.985 365.574 640.065 371.146L703.132 366.638L702.867 367.378C709.567 362.628 715.617 357.076 720.873 350.854C722.927 348.401 724.913 345.91 726.83 343.382L661.795 351.389Z" fill="#F55E00"/>
<path d="M710.215 287.38C717.721 275.474 724.284 263.911 729.839 253.442L715.395 194.041L716.002 193.531C705.223 194.475 693.432 198.516 681.46 205.407L710.215 287.38Z" fill="#F55E00"/>
<path d="M637.363 371.857L614.794 286.485C596.584 335.441 593.009 393.619 592.797 397.324C608.746 391.495 623.649 382.569 637.363 371.857Z" fill="#F55E00"/>
<path d="M661.639 349.948L661.701 349.941C669.994 341.419 677.806 332.472 685.103 323.138L648.839 231.231C645.497 234.656 642.209 238.295 638.975 242.15C634.398 247.703 630.354 253.647 626.894 259.91L661.639 349.948Z" fill="#F55E00"/>
<path d="M544.319 182.605L541.949 218.491C548.189 228.752 554.85 240.443 561.294 253.096L568.726 198.764L569.297 199.211C560.983 191.986 552.35 186.212 543.741 182.208L544.319 182.605Z" fill="#F55E00"/>
<path d="M540.851 216.692L543.147 181.931C533.469 177.521 523.832 175.36 514.729 175.932C514.255 175.961 513.788 176.004 513.321 176.048C515.316 178.647 526.92 193.976 540.851 216.692Z" fill="#F55E00"/>
<path d="M617.166 268.09L617.696 268.703C615.772 264.002 613.687 259.409 611.441 254.922L587.454 316.444L587.2 316.174C588.081 319.082 588.905 321.966 589.672 324.824L617.166 268.09Z" fill="#F55E00"/>
<path d="M595.99 229.337L596.547 229.878C588.918 218.842 579.964 208.718 569.873 199.719L562.299 255.087C568.282 266.972 573.525 278.609 578.025 289.996L595.99 229.337Z" fill="#F55E00"/>
<path d="M473.257 233.566C473.107 243.02 473.946 252.465 475.759 261.757L573.852 282.422C569.743 272.621 565.4 263.372 561.125 254.909L473.422 234.347L473.257 233.566Z" fill="#F55E00"/>
<path d="M478.168 272.506L477.988 271.724L577.428 291.254C576.481 288.827 575.517 286.429 574.535 284.06L476.08 263.318L475.906 262.536C476.543 265.811 477.297 269.134 478.168 272.506Z" fill="#F55E00"/>
<path d="M610.463 253.48L611.008 254.06C606.906 245.946 602.244 238.108 597.051 230.601L578.844 292.08C581.8 299.69 584.41 307.159 586.676 314.489L610.463 253.48Z" fill="#F55E00"/>
<path d="M596.197 357.929C598.251 375.067 597.932 391.027 595.227 405.629C602.186 394.664 629.108 349.035 626.307 303.483L596.197 357.929Z" fill="#F55E00"/>
<path d="M492.676 308.278C497.188 315.778 502.214 322.977 507.721 329.827L507.576 328.963L594.859 356.431C593.617 346.851 591.782 337.352 589.363 327.984L492.676 308.278Z" fill="#F55E00"/>
<path d="M540.012 217.192C524.933 192.618 512.623 176.785 512.446 176.558L512.732 176.106C498.953 177.598 488.441 185.41 481.736 197.64L540.012 217.192Z" fill="#F55E00"/>
<path d="M590.253 327.039C590.484 327.927 590.72 328.818 590.94 329.7C593.066 338.163 594.713 346.731 595.875 355.366L625.699 301.436L626.204 302.049C625.642 294.034 624.031 286.119 621.412 278.495C620.368 275.504 619.256 272.549 618.074 269.63L590.253 327.039Z" fill="#F55E00"/>
<path d="M560.268 253.222C553.887 240.717 547.301 229.166 541.132 219.025L481.519 199.024L481.398 198.255C476.452 207.565 473.67 219.36 473.279 232.828L560.268 253.222Z" fill="#F55E00"/>
<path d="M595.049 357.953L508.404 330.686C541.414 371.768 590.312 405.833 593.435 407.99C596.882 391.842 597.064 374.89 595.049 357.953Z" fill="#F55E00"/>
<path d="M588.911 326.395L588.937 326.341C585.934 315.005 582.302 303.835 578.056 292.877L478.372 273.299C479.573 277.862 480.992 282.496 482.628 287.201C485.027 293.912 488.054 300.398 491.672 306.577L588.911 326.395Z" fill="#F55E00"/>
<path d="M498.417 394.531C566.26 393.757 634.101 394.201 701.939 395.863C707.775 396.006 713.831 396.189 718.985 397.684C724.138 399.178 728.104 402.385 726.694 405.465C700.212 406.223 673.703 406.457 647.167 406.167C641.388 408.905 635.043 413.028 638.595 416.72C641.052 419.274 647.119 420.035 652.424 420.041C662.032 420.052 671.68 418.527 681.146 419.421C690.612 420.316 700.058 425.131 697.285 430.13C695.179 433.926 687.19 435.805 679.919 436.141C672.649 436.476 665.204 435.778 658.098 436.677C651.344 437.532 645.493 439.751 639.173 441.301C629.203 443.745 618.15 444.5 607.276 445.142C523.78 450.076 439.591 450.036 355.602 449.992C321.6 449.974 287.136 449.924 254.302 445.123C235.585 442.387 217.65 438.138 198.698 435.933C176.059 433.299 152.662 433.657 129.511 433.736C88.869 433.874 48.2609 433.117 7.68712 431.463C4.66777 431.34 0.961601 430.923 0.14677 429.339C-0.804179 427.49 3.05513 426.047 6.31733 425.309C24.8023 421.171 43.5979 418.46 62.5268 417.201C72.1133 416.549 81.9919 416.217 90.8089 414.071C99.6259 411.925 107.329 407.424 107.246 402.175C107.221 400.574 106.522 398.861 107.904 397.446C109.739 395.568 114.254 395.137 118.149 394.932C161.331 392.663 204.748 391.715 248.125 392.096C263.384 392.23 278.705 392.526 293.856 391.532C306.27 390.718 318.429 389.046 330.663 387.642C347.085 385.758 418.553 375.996 428.979 383.917C436.783 389.846 420.67 391.125 441.602 393.545C459.827 395.651 479.932 394.742 498.417 394.531Z" fill="#F2F2F2"/>
<path d="M460.915 188.434C483.179 188.434 501.228 170.979 501.228 149.447C501.228 127.916 483.179 110.461 460.915 110.461C438.65 110.461 420.601 127.916 420.601 149.447C420.601 170.979 438.65 188.434 460.915 188.434Z" fill="#2F2E41"/>
<path d="M504.587 137.102C526.852 137.102 544.9 119.647 544.9 98.1155C544.9 76.584 526.852 59.1293 504.587 59.1293C482.323 59.1293 464.274 76.584 464.274 98.1155C464.274 119.647 482.323 137.102 504.587 137.102Z" fill="#2F2E41"/>
<path d="M539.36 130.399C534.142 134.046 528.097 136.431 521.73 137.356C515.363 138.28 508.861 137.717 502.765 135.712C496.67 133.708 491.16 130.321 486.695 125.835C482.231 121.349 478.943 115.895 477.105 109.928C477.801 115.275 479.635 120.425 482.492 125.052C485.349 129.68 489.167 133.684 493.706 136.812C498.244 139.94 503.403 142.125 508.859 143.227C514.314 144.33 519.946 144.326 525.4 143.218C530.854 142.109 536.01 139.919 540.545 136.785C545.079 133.652 548.892 129.643 551.744 125.013C554.595 120.382 556.423 115.23 557.112 109.882C557.801 104.533 557.336 99.1051 555.745 93.9396C556.649 100.879 555.604 107.927 552.721 114.341C549.838 120.756 545.222 126.303 539.36 130.399Z" fill="#2F2E41"/>
<path d="M450.5 196.556C468.683 196.556 483.423 182.301 483.423 164.717C483.423 147.133 468.683 132.878 450.5 132.878C432.318 132.878 417.578 147.133 417.578 164.717C417.578 182.301 432.318 196.556 450.5 196.556Z" fill="#A0616A"/>
<path d="M439.078 190.708C439.078 190.708 452.516 210.201 450.5 218.648C450.5 218.648 441.766 222.546 441.766 223.846C441.766 225.146 433.703 237.491 433.703 237.491L424.297 249.837L420.265 266.081H439.75L461.25 249.837L482.079 227.745C482.079 227.745 496.189 221.247 503.579 226.445L507.611 229.694C507.611 229.694 493.501 211.5 486.782 207.602C486.782 207.602 474.688 193.307 476.032 179.012L439.078 190.708Z" fill="#A0616A"/>
<path d="M444.453 217.998C444.453 217.998 431.016 225.146 425.641 238.791C420.265 252.436 396.078 297.92 396.078 297.92C396.078 297.92 394.062 327.159 395.406 328.459C396.749 329.759 412.203 315.464 414.89 311.565C417.578 307.666 428.328 260.883 428.328 260.883L445.797 233.593L449.157 217.998H444.453Z" fill="#A0616A"/>
<path d="M402.124 299.869L396.077 297.92C396.077 297.92 359.124 275.828 357.108 266.081C355.092 256.334 325.529 223.846 324.857 241.39C324.186 258.934 346.358 278.427 346.358 278.427C346.358 278.427 394.734 344.053 397.421 325.21L402.124 299.869Z" fill="#A0616A"/>
<path d="M463.266 255.035C463.266 255.035 463.938 273.229 490.142 279.726C490.142 279.726 517.017 314.814 519.705 330.408C522.392 346.003 592.94 425.925 592.94 425.925C592.94 425.925 658.113 433.722 658.113 425.925C658.113 418.127 603.691 411.63 603.691 411.63C603.691 411.63 546.58 329.759 543.893 318.713C541.205 307.666 515.673 225.795 503.579 226.445C503.579 226.445 492.157 221.247 485.438 225.146C478.72 229.044 463.266 255.035 463.266 255.035Z" fill="#A0616A"/>
<path d="M384.656 328.459C384.656 328.459 337.623 267.381 327.545 263.482C317.467 259.583 304.701 256.984 297.31 266.081C289.919 275.178 202.574 381.74 202.574 381.74C202.574 381.74 171.667 412.279 156.214 406.431C156.214 406.431 148.151 412.929 166.964 414.229C185.777 415.528 203.246 410.33 203.246 410.33C203.246 410.33 214.668 412.279 222.731 414.229C230.793 416.178 240.872 416.828 240.2 411.63L237.512 390.837C237.512 390.837 306.717 335.606 308.732 312.215C308.732 312.215 307.388 301.169 308.732 302.468C310.076 303.768 338.295 333.007 351.061 339.505C363.827 346.003 395.406 355.1 395.406 355.1L384.656 328.459Z" fill="#A0616A"/>
<path opacity="0.1" d="M384.656 328.459C384.656 328.459 337.623 267.381 327.545 263.482C317.467 259.583 304.701 256.984 297.31 266.081C289.919 275.178 202.574 381.74 202.574 381.74C202.574 381.74 171.667 412.279 156.214 406.431C156.214 406.431 148.151 412.929 166.964 414.229C185.777 415.528 203.246 410.33 203.246 410.33C203.246 410.33 214.668 412.279 222.731 414.229C230.793 416.178 240.872 416.828 240.2 411.63L237.512 390.837C237.512 390.837 306.717 335.606 308.732 312.215C308.732 312.215 307.388 301.169 308.732 302.468C310.076 303.768 338.295 333.007 351.061 339.505C363.827 346.003 395.406 355.1 395.406 355.1L384.656 328.459Z" fill="black"/>
<path d="M392.046 336.906C392.046 336.906 330.233 314.164 322.17 308.966C314.107 303.768 285.216 293.371 270.435 305.067C255.653 316.763 183.761 370.694 159.573 375.892C135.385 381.09 93.7283 393.436 93.7283 393.436C93.7283 393.436 66.8528 395.385 95.744 406.432C95.744 406.432 131.354 409.68 137.401 414.879C143.448 420.077 163.605 426.574 164.948 418.127C166.292 409.68 170.323 398.634 177.714 397.335C185.105 396.035 273.794 372.643 287.232 347.302C287.232 347.302 317.467 363.547 336.28 382.39C355.092 401.233 399.437 411.63 399.437 411.63L392.046 336.906Z" fill="#A0616A"/>
<path d="M414.218 316.113C414.218 316.113 384.766 323.684 382.359 320.874C379.952 318.063 367.186 333.657 379.28 364.846C391.374 396.035 388.687 410.33 395.406 414.878C402.124 419.427 433.703 412.279 443.109 415.528C452.516 418.777 464.61 421.376 468.641 402.533C472.672 383.689 482.751 350.551 480.735 346.003C478.719 341.454 467.969 331.058 467.969 331.058L445.797 320.012L414.218 316.113Z" fill="#3F3D56"/>
<path d="M516.009 243.014C516.009 243.014 511.332 230.343 502.648 227.967C501.914 227.774 501.191 227.545 500.481 227.28C497.219 226.028 487.269 223.294 480.063 232.943C471.329 244.639 463.266 258.284 469.985 266.081C476.704 273.878 490.142 278.427 490.142 278.427L500.22 290.772C500.22 290.772 480.063 325.86 480.063 342.104C480.063 342.104 479.391 348.602 467.969 336.906C456.547 325.21 409.805 317.124 409.805 317.124C409.805 317.124 419.593 304.418 412.203 298.57C404.812 292.722 398.045 269.428 415.538 260.282L445.461 217.673L450.836 218.323C450.836 218.323 443.781 224.496 443.11 227.745C442.438 230.994 415.562 253.735 426.312 257.634C437.063 261.533 454.532 253.086 461.922 243.339C465.987 237.979 471.678 230.652 478.883 226.009C482.583 223.674 486.854 222.324 491.266 222.095C495.678 221.866 500.074 222.766 504.011 224.704L506.267 225.795C510.659 228.768 514.105 232.869 516.216 237.634L517.017 239.441L516.009 243.014Z" fill="#2F2E41"/>
<path d="M471.665 184.535C487.992 184.535 501.228 171.735 501.228 155.945C501.228 140.155 487.992 127.355 471.665 127.355C455.338 127.355 442.102 140.155 442.102 155.945C442.102 171.735 455.338 184.535 471.665 184.535Z" fill="#2F2E41"/>
<path d="M446.805 165.042C461.277 165.042 473.009 156.169 473.009 145.224C473.009 134.279 461.277 125.406 446.805 125.406C432.333 125.406 420.601 134.279 420.601 145.224C420.601 156.169 432.333 165.042 446.805 165.042Z" fill="#2F2E41"/>
<path d="M456.547 183.885C458.959 183.885 460.915 180.54 460.915 176.413C460.915 172.286 458.959 168.94 456.547 168.94C454.135 168.94 452.18 172.286 452.18 176.413C452.18 180.54 454.135 183.885 456.547 183.885Z" fill="#A0616A"/>
<path d="M463.938 110.695V162.443H448.485V110.695C448.485 109.771 448.864 108.885 449.539 108.232C450.215 107.579 451.131 107.212 452.086 107.212H460.337C461.292 107.212 462.208 107.579 462.883 108.232C463.559 108.885 463.938 109.771 463.938 110.695Z" fill="#FF6584"/>
<path d="M456.211 189.083C465.488 189.083 473.008 181.81 473.008 172.839C473.008 163.868 465.488 156.595 456.211 156.595C446.934 156.595 439.414 163.868 439.414 172.839C439.414 181.81 446.934 189.083 456.211 189.083Z" fill="#F55E00"/>
<path d="M456.211 179.986C460.293 179.986 463.602 176.786 463.602 172.839C463.602 168.892 460.293 165.692 456.211 165.692C452.13 165.692 448.821 168.892 448.821 172.839C448.821 176.786 452.13 179.986 456.211 179.986Z" fill="#F2F2F2"/>
<path d="M456.211 174.788C457.325 174.788 458.227 173.916 458.227 172.839C458.227 171.762 457.325 170.89 456.211 170.89C455.098 170.89 454.196 171.762 454.196 172.839C454.196 173.916 455.098 174.788 456.211 174.788Z" fill="#FF6584"/>
<path opacity="0.1" d="M463.938 110.695V113.06H448.485V110.695C448.485 109.771 448.864 108.885 449.539 108.232C450.215 107.579 451.131 107.212 452.086 107.212H460.337C461.292 107.212 462.208 107.579 462.883 108.232C463.559 108.885 463.938 109.771 463.938 110.695Z" fill="black"/>
<path d="M284.446 238.886L324.007 200.627C324.692 199.965 325.505 199.439 326.401 199.08C327.296 198.722 328.256 198.537 329.225 198.537C330.194 198.537 331.153 198.722 332.049 199.08C332.944 199.439 333.757 199.965 334.443 200.627L370.031 235.044C371.415 236.382 372.192 238.198 372.192 240.09C372.192 241.983 371.415 243.798 370.031 245.137L333.068 280.883C331.75 282.158 329.982 282.903 328.119 282.968C326.256 283.034 324.436 282.415 323.026 281.237L284.84 249.332C284.072 248.691 283.449 247.903 283.011 247.019C282.572 246.135 282.326 245.172 282.289 244.192C282.252 243.212 282.425 242.235 282.796 241.322C283.167 240.409 283.729 239.579 284.446 238.886Z" fill="#2F2E41"/>
<path d="M295.63 244.964L330.233 211.5L358.788 239.116L325.529 271.279L295.63 244.964Z" fill="#F2F2F2"/>
<path d="M327.881 257.056C337.013 257.056 344.417 249.897 344.417 241.065C344.417 232.233 337.013 225.073 327.881 225.073C318.749 225.073 311.345 232.233 311.345 241.065C311.345 249.897 318.749 257.056 327.881 257.056Z" fill="#F55E00"/>
<path opacity="0.1" d="M320.521 254.695C317.755 252.181 315.967 248.824 315.458 245.186C314.949 241.549 315.749 237.852 317.724 234.718C319.7 231.584 322.73 229.202 326.307 227.972C329.883 226.743 333.788 226.741 337.366 227.967C335.433 226.658 333.233 225.764 330.913 225.346C328.593 224.927 326.208 224.994 323.917 225.541C321.626 226.088 319.483 227.103 317.631 228.518C315.779 229.932 314.262 231.714 313.181 233.742C312.101 235.771 311.482 238 311.366 240.279C311.25 242.559 311.639 244.835 312.509 246.957C313.378 249.078 314.707 250.995 316.406 252.579C318.105 254.163 320.135 255.376 322.359 256.138C321.712 255.7 321.098 255.217 320.521 254.695Z" fill="black"/>
<path d="M336.011 237.887C337.983 239.679 338.087 246.129 335.076 249.228C332.065 252.327 327.079 250.901 325.107 249.11C323.135 247.318 324.924 245.838 327.935 242.739C330.946 239.64 334.039 236.095 336.011 237.887Z" fill="#F2F2F2"/>
<path d="M319.224 246.064C321.93 246.064 324.123 243.942 324.123 241.326C324.123 238.709 321.93 236.587 319.224 236.587C316.518 236.587 314.324 238.709 314.324 241.326C314.324 243.942 316.518 246.064 319.224 246.064Z" fill="#2F2E41"/>
<path d="M328.031 237C330.737 237 332.93 234.878 332.93 232.261C332.93 229.644 330.737 227.523 328.031 227.523C325.325 227.523 323.131 229.644 323.131 232.261C323.131 234.878 325.325 237 328.031 237Z" fill="#2F2E41"/>
<path d="M319.224 242.51C319.9 242.51 320.449 241.98 320.449 241.326C320.449 240.671 319.9 240.141 319.224 240.141C318.547 240.141 317.999 240.671 317.999 241.326C317.999 241.98 318.547 242.51 319.224 242.51Z" fill="#F2F2F2"/>
<path d="M318.697 239.001C319.035 239.001 319.309 238.735 319.309 238.408C319.309 238.081 319.035 237.816 318.697 237.816C318.359 237.816 318.084 238.081 318.084 238.408C318.084 238.735 318.359 239.001 318.697 239.001Z" fill="#F2F2F2"/>
<path d="M327.504 229.936C327.842 229.936 328.116 229.671 328.116 229.344C328.116 229.017 327.842 228.752 327.504 228.752C327.165 228.752 326.891 229.017 326.891 229.344C326.891 229.671 327.165 229.936 327.504 229.936Z" fill="#F2F2F2"/>
<path d="M328.031 233.446C328.707 233.446 329.256 232.916 329.256 232.261C329.256 231.607 328.707 231.077 328.031 231.077C327.354 231.077 326.806 231.607 326.806 232.261C326.806 232.916 327.354 233.446 328.031 233.446Z" fill="#F2F2F2"/>
</g>
<defs>
<clipPath id="clip0">
<rect width="764" height="450" fill="white"/>
</clipPath>
</defs>
</svg>
