<svg width="677" height="541" viewBox="0 0 677 541" fill="none" xmlns="http://www.w3.org/2000/svg">
<g clip-path="url(#clip0)">
<path d="M631.108 322C645.437 282.257 651.284 239.425 648.198 196.804C645.113 154.184 633.177 112.91 613.311 76.1636L207.612 137.966L596.401 48.8207C572.747 14.9398 542.324 -12.4978 507.486 -31.368C472.648 -50.2383 434.331 -60.035 395.5 -59.9999C255.496 -59.9999 142 64.8692 142 218.903C142.003 231.634 142.791 244.349 144.359 256.962L631.108 322Z" fill="#F2F2F2"/>
<path d="M185.838 319.167C220.461 397.563 307.478 453.18 409.366 453.18C504.973 453.18 587.486 404.208 625.904 333.397L185.838 319.167Z" fill="#F2F2F2"/>
<path d="M619.984 391.999C619.984 474.293 481.192 541 309.992 541C218.018 541 135.401 521.751 78.6346 491.169C41.5953 471.222 15.556 446.445 5.11017 419.066C1.73891 410.346 0.0129692 401.204 0 391.999C0 309.713 256.889 -61.4666 309.992 243.006C363.094 547.479 619.984 309.714 619.984 391.999Z" fill="#FF9063"/>
<path opacity="0.1" d="M464.048 446.035C464.048 476.42 354.283 501.056 218.873 501.056C166.719 501.056 118.37 497.402 78.6347 491.169C41.5953 471.221 15.556 446.446 5.11021 419.066C47.147 402.322 127.125 391.014 218.873 391.014C354.283 391.014 464.048 415.65 464.048 446.035Z" fill="black"/>
<path d="M287.074 132.634C267.643 103.932 229.202 102.594 229.202 102.594C229.202 102.594 191.743 98.4066 167.713 142.12C145.315 182.864 114.404 222.204 162.736 231.742L171.467 207.987L176.873 233.51C183.755 233.943 190.659 234.046 197.553 233.819C249.314 232.358 298.608 234.247 297.021 218.009C294.911 196.423 305.77 160.251 287.074 132.634Z" fill="#2F2E41"/>
<path d="M159.977 383.99C159.256 387.122 158.723 390.307 157.498 393.317C156.282 396.306 154.405 399.071 153.293 402.09C149.75 411.716 154.662 422.449 162.508 429.878C169.313 436.296 178.096 440.855 187.797 443.006C194.876 444.562 202.236 444.786 209.53 445.003C229.729 445.601 250.448 446.137 269.587 440.462C275.634 438.625 281.475 436.306 287.036 433.533C288.792 432.801 290.338 431.737 291.563 430.416C293.023 428.599 293.21 426.243 293.197 424.023C293.154 416.537 291.418 409.089 291.83 401.612C292.059 397.47 292.945 393.332 292.509 389.203C291.519 379.839 283.014 371.458 272.497 369.484C267.067 368.465 261.436 369.02 255.908 369.485C241.559 370.69 227.149 371.253 212.735 371.173C198.007 371.09 183.37 369.125 168.715 368.92C164.382 368.859 164.469 370.027 163.089 373.694C161.819 377.068 160.779 380.507 159.977 383.99Z" fill="#2F2E41"/>
<path d="M201.773 199.146C201.065 202.386 200.3 205.744 198.073 208.407C195.511 211.47 191.333 213.22 188.577 216.152C184.428 220.564 184.19 226.773 184.173 232.485C184.157 237.747 184.279 243.36 187.636 247.728C189.814 250.562 193.129 252.55 196.368 254.458C208.956 261.874 222.559 269.424 237.735 269.668C244.024 269.77 250.766 268.35 254.904 264.209C256.69 262.264 258.095 260.073 259.061 257.726C262.941 249.363 265.294 240.519 266.032 231.517C266.377 227.282 266.344 222.923 264.705 218.927C262.861 214.433 259.133 210.735 256.669 206.475C253.757 201.408 252.691 195.683 253.617 190.07C253.74 189.675 253.702 189.255 253.51 188.882C253.307 188.682 253.054 188.525 252.771 188.425C252.488 188.325 252.182 188.283 251.877 188.303L221.784 186.41C218.981 186.288 216.191 186.009 213.429 185.574C211.807 185.286 207.522 183.271 205.975 183.807C203.112 184.798 202.36 196.46 201.773 199.146Z" fill="#A0616A"/>
<path opacity="0.1" d="M201.773 199.968C201.065 203.207 200.3 206.566 198.073 209.228C195.511 212.291 191.333 214.041 188.577 216.973C184.428 221.386 184.19 227.595 184.173 233.307C184.157 238.569 184.279 244.181 187.636 248.549C189.814 251.384 193.129 253.371 196.368 255.28C208.956 262.696 222.559 270.245 237.735 270.489C244.024 270.591 250.766 269.171 254.904 265.03C256.69 263.085 258.095 260.894 259.061 258.547C262.941 250.184 265.294 241.34 266.032 232.338C266.377 228.103 266.344 223.745 264.705 219.748C262.861 215.254 259.133 211.557 256.669 207.296C253.757 202.229 252.691 196.504 253.617 190.892C253.74 190.497 253.702 190.076 253.51 189.703C253.307 189.503 253.054 189.347 252.771 189.246C252.488 189.146 252.182 189.104 251.877 189.125L221.784 187.231C218.981 187.109 216.191 186.83 213.429 186.395C211.807 186.107 207.522 184.093 205.975 184.628C203.112 185.62 202.36 197.281 201.773 199.968Z" fill="black"/>
<path d="M230.552 202.675C254.936 202.675 274.703 185.394 274.703 164.077C274.703 142.761 254.936 125.48 230.552 125.48C206.169 125.48 186.402 142.761 186.402 164.077C186.402 185.394 206.169 202.675 230.552 202.675Z" fill="#A0616A"/>
<path d="M207.966 250.525C210.267 252.628 212.705 254.71 215.72 255.942C218.72 257.168 222.099 257.473 225.408 257.555C233.367 257.75 241.994 256.476 247.531 251.474C254.667 245.026 254.432 234.626 260.026 227.104C260.477 226.422 261.092 225.834 261.829 225.381C262.767 224.934 263.827 224.721 264.895 224.764C271.959 224.707 278.114 228.712 283.668 232.53C286.156 234.24 288.706 236.012 290.276 238.414C291.374 240.288 292.126 242.301 292.504 244.38C295.26 256.142 296.153 268.169 297.039 280.151C297.528 286.769 298.018 293.393 297.981 300.025C297.862 321.873 292.052 343.357 286.276 364.614C285.531 367.353 284.513 370.415 281.664 371.726C280.394 372.226 279.029 372.517 277.639 372.585C261.094 374.284 244.514 375.985 227.857 376.209C221.356 376.296 214.859 376.159 208.364 375.796C207.246 375.783 206.137 375.614 205.08 375.296C203.645 374.694 202.412 373.778 201.5 372.638C192.49 362.712 191.958 348.99 192.016 336.318C192.157 305.338 193.423 274.382 195.814 243.452C196.012 240.899 196.055 237.798 193.951 235.79C197.74 241.092 203.01 245.996 207.966 250.525Z" fill="#D0CDE1"/>
<path d="M198.614 205.959C197.123 208.319 186.129 214.179 184.006 216.134C172.148 227.062 150.505 226.652 139.659 238.356C135.844 242.473 133.861 247.647 132.403 252.791C130.341 260.066 129.24 268 132.694 274.86C136.018 281.461 143.016 286.024 147.767 291.92C152.983 298.394 155.328 306.254 157.576 313.925C159.235 319.589 160.909 325.394 160.262 331.213C159.527 337.83 155.865 343.888 153.702 350.262C151.54 356.635 151.167 364.225 156.167 369.234C159.84 372.914 165.602 374.373 171.109 375.193C178.138 376.241 185.282 376.539 192.406 376.814C198.701 377.057 205.641 377.104 210.48 373.576C214.299 370.792 215.959 366.275 216.173 361.932C216.388 357.589 215.355 353.285 214.707 348.975C214.036 344.507 213.778 340.001 213.563 335.498C212.594 315.298 212.462 295.084 213.166 274.857C213.313 270.648 213.491 266.388 212.464 262.274C211.114 256.863 207.769 252.028 204.978 247.056C199.438 237.188 196.818 227.603 197.674 216.635C198.52 205.81 203.92 197.562 198.614 205.959Z" fill="#575A89"/>
<path d="M260.612 206.78C262.883 208.821 270.601 209.494 273.49 210.808C276.144 212.015 279.081 212.646 281.956 213.37C292.495 216.028 302.52 220.051 311.696 225.303C313.603 226.278 315.289 227.551 316.67 229.059C318.286 231.025 318.873 233.477 319.421 235.85C320.836 241.977 322.257 248.177 321.939 254.421C321.602 261.048 319.318 267.467 317.053 273.799L308.588 297.458C302.269 315.117 295.911 332.95 294.133 351.388C293.149 361.607 293.587 371.892 295.435 382.019C295.621 383.037 295.777 384.204 295.008 384.986C294.451 385.467 293.717 385.763 292.935 385.819C288.85 386.378 284.896 384.557 281.194 382.945C269.881 378.023 257.806 374.569 245.353 372.693C250.219 366.544 253.974 359.778 256.485 352.631C257.911 348.092 259.034 343.485 259.848 338.833L263.786 318.923C265.23 311.622 266.677 304.302 267.164 296.905C267.462 294.132 267.277 291.336 266.616 288.611C265.862 285.983 264.363 283.574 263.02 281.131C256.53 269.33 253.485 255.863 256.038 242.96C257.156 237.314 259.327 231.66 258.422 225.984C257.551 220.527 258.456 216.287 256.855 210.886C250.279 188.714 256.339 202.941 260.612 206.78Z" fill="#575A89"/>
<path d="M139.547 257.014C136.589 262.381 131.642 266.954 129.959 272.727C129.304 275.425 129.023 278.183 129.123 280.939C129.083 285.095 129.057 289.334 130.516 293.288C131.456 295.834 132.985 298.182 134.086 300.678C135.621 304.165 136.305 307.894 136.094 311.626C135.797 316.796 133.787 321.815 133.63 326.989C133.384 335.127 137.689 342.777 141.89 350.042C142.947 347.753 144.564 345.693 146.627 344.007C148.69 342.321 151.15 341.05 153.834 340.282C156.517 339.514 159.361 339.267 162.165 339.56C164.969 339.853 167.666 340.678 170.067 341.977C171.175 341.083 171.294 339.613 171.337 338.295C171.648 328.854 171.947 319.413 172.236 309.971C172.69 295.37 173.124 280.573 169.281 266.357C167.547 259.938 164.847 253.545 159.899 248.566C157.293 245.945 148.448 239.04 144.171 241.977C142.247 243.298 142.697 246.892 142.392 248.713C141.932 251.59 140.973 254.389 139.547 257.014Z" fill="#575A89"/>
<path d="M322.804 241.547C324.204 245.356 324.287 249.427 324.315 253.428C324.372 261.589 324.248 269.749 323.944 277.909C323.788 282.086 323.574 286.32 322.125 290.303C321.169 292.93 319.695 295.393 318.708 298.01C315.751 305.855 317.367 314.364 317.62 322.621C317.799 325.294 317.539 327.975 316.846 330.582C315.285 335.701 311.091 339.837 308.164 344.475C305.384 348.881 303.707 353.818 300.386 357.928C297.066 362.037 291.318 365.293 285.747 364.032C281.526 363.076 278.527 359.809 276.452 356.457C271.925 349.085 270.376 340.593 272.058 332.355C274.14 322.334 280.874 313.443 283.303 303.481C286.637 289.801 281.569 275.684 281.72 261.697C281.651 259.505 281.991 257.317 282.727 255.22C284.001 252.025 286.737 249.474 289.264 246.912C292.422 243.71 295.356 240.344 298.05 236.832C299.859 234.473 302.316 228.406 305.524 227.901C312.686 226.775 321.027 236.71 322.804 241.547Z" fill="#575A89"/>
<path d="M102.385 377.906C98.4247 377.036 94.3441 376.657 90.2629 376.779C85.9748 376.987 81.7864 377.99 77.976 379.721C74.1657 381.453 70.8208 383.874 68.1636 386.824C65.5065 389.774 63.5981 393.184 62.5654 396.828C61.5326 400.472 61.399 404.267 62.1737 407.96C63.0168 411.979 64.911 415.769 66.9772 419.435C70.192 425.138 74.0478 430.829 79.9993 434.484C83.4808 436.622 87.5102 437.955 91.4917 439.266L122.837 449.589C127.449 451.108 132.06 452.627 136.717 454.035C160.113 461.104 184.505 465.344 209.215 466.635C216.742 467.026 224.382 467.136 231.725 465.638C233.468 465.282 235.326 464.752 236.335 463.46C236.933 462.55 237.285 461.533 237.365 460.486L239.294 448.681C239.566 447.019 239.827 445.27 239.13 443.705C238.246 441.721 236.032 440.473 233.92 439.413C213.312 429.066 189.251 423.357 171.905 409.156C167.822 405.813 164.405 400.513 159.443 398.242C153.817 395.667 147.191 394.197 141.376 391.824C128.663 386.636 116.164 380.675 102.385 377.906Z" fill="#2F2E41"/>
<path opacity="0.1" d="M133.679 393.82C144.758 396.855 191.535 417.882 199.553 425.223C198.478 425.562 162.015 407.697 160.921 407.41C150.975 404.801 140.974 402.174 131.529 398.355C129.629 397.587 119.186 393.976 119.659 391.88C120.192 389.515 131.712 393.281 133.679 393.82Z" fill="black"/>
<path d="M271.901 472.757C272.529 472.797 273.153 472.636 273.657 472.305C273.878 472.057 274.04 471.773 274.134 471.469C274.229 471.166 274.253 470.849 274.206 470.538C274.189 465.177 274.172 459.816 274.154 454.456C268.864 452.252 262.947 451.546 257.139 450.867L230.04 447.701C230.662 447.773 225.802 457.905 226.548 459.257C227.861 461.641 237.898 463.754 240.73 464.879C250.577 468.792 260.81 473.094 271.901 472.757Z" fill="#A0616A"/>
<path d="M186.876 454.4C181.76 455.113 176.049 455.742 172.735 459.224C168.533 463.64 170.322 470.223 172.327 475.693C172.624 476.799 173.222 477.827 174.07 478.689C175.438 479.869 177.534 480.042 179.452 480.148C184.118 480.406 189.084 480.609 193.161 478.608C195.092 477.66 196.687 476.276 198.486 475.147C201.493 473.398 204.798 472.077 208.278 471.234C214.675 469.475 221.261 468.288 227.932 467.693C230.548 467.46 233.215 467.31 235.675 466.5C238.135 465.69 240.413 464.083 241.128 461.872C242.072 458.949 240.129 455.969 238.266 453.406C235.944 450.214 233.485 446.852 230.024 444.501C224.974 441.072 222.477 443.705 217.39 445.899C207.763 450.053 197.477 452.918 186.876 454.4Z" fill="#A0616A"/>
<path d="M173.505 458.429L141.016 450.035C137.065 449.014 133.046 447.984 128.926 447.986C124.806 447.989 120.495 449.17 117.823 451.912C115.304 454.497 114.583 458.029 113.954 461.381L112.611 468.549C111.928 472.192 111.244 475.905 111.859 479.558C112.473 483.21 114.606 486.859 118.313 488.627C122.809 490.771 128.319 489.724 133.337 488.827C143.472 487.016 153.78 486.05 164.124 485.941C168.013 485.9 172.092 485.943 175.528 484.351C179.613 482.458 182.056 478.457 182.477 474.432C183.116 468.308 180.781 460.309 173.505 458.429Z" fill="#2F2E41"/>
<path d="M284.671 451.113C288.883 450.468 292.6 448.376 296.636 447.14C302.316 445.402 308.472 445.402 314.491 445.421C316.7 445.428 319.053 445.471 320.892 446.542C323.543 448.085 324.222 451.172 324.673 453.929C325.58 459.472 326.486 465.015 327.393 470.558C327.904 473.686 328.413 476.897 327.615 479.979C326.817 483.06 324.414 486.031 320.916 486.826C316.668 487.792 312.503 485.419 308.492 483.861C298.466 479.965 286.812 480.961 276.358 478.05C274.418 477.509 272.34 476.683 271.549 475.043C271.191 474.12 271.064 473.14 271.175 472.17C271.354 466.824 270.064 459.525 271.905 454.417C273.561 449.823 279.97 451.113 284.671 451.113Z" fill="#2F2E41"/>
<path d="M353.425 371.212C359.916 369.789 366.646 369.387 373.299 370.025C378.612 370.537 384.086 371.829 387.965 375.044C392.687 378.957 394.204 385.009 394.33 390.695C394.538 402.022 390.241 413.059 382.173 421.924C380.203 424.166 377.86 426.137 375.223 427.773C372.377 429.329 369.345 430.607 366.18 431.583L295.983 455.788C277.515 462.156 258.983 468.542 239.721 472.74C239.194 472.962 238.622 473.09 238.038 473.116C237.454 473.142 236.87 473.066 236.32 472.892C235.77 472.717 235.266 472.449 234.836 472.102C234.407 471.754 234.062 471.336 233.82 470.87C227.67 463.19 222.51 454.938 218.435 446.266C218.242 446.06 218.109 445.817 218.046 445.556C217.984 445.295 217.994 445.025 218.077 444.769C218.159 444.512 218.311 444.277 218.519 444.083C218.727 443.888 218.986 443.741 219.273 443.652L268.924 418.713C272.481 416.926 276.077 415.114 279.03 412.625C281.176 410.807 282.933 408.669 284.218 406.311C285.248 404.432 285.343 399.997 286.658 398.608C287.945 397.248 292.348 397.139 294.382 396.604C297.25 395.836 300.058 394.908 302.79 393.826C313.897 389.482 323.787 383.171 334.434 378.085C340.406 375.1 346.787 372.79 353.425 371.212Z" fill="#2F2E41"/>
<path opacity="0.1" d="M325.277 389.838C316.747 395.439 305.702 400.587 297.247 406.335C294.362 408.297 246.262 431.938 245.582 435.078C253.47 436.24 303.713 405.512 310.902 402.446C318.09 399.379 324.463 395.055 330.777 390.763C332.386 389.67 339.206 386.382 334.587 385.159C331.984 384.471 327.198 388.718 325.277 389.838Z" fill="black"/>
<path d="M278.483 129.867L240.505 112.476L188.058 119.591L177.208 161.488L204.219 160.579L211.765 145.187V160.326L224.228 159.907L231.463 135.401L235.983 161.488L280.292 160.697L278.483 129.867Z" fill="#2F2E41"/>
<path d="M149.483 365.785C151.36 368.234 153.558 370.63 156.572 371.951C160.338 373.602 164.987 373.307 168.759 371.665C172.498 369.913 175.558 367.23 177.553 363.957C181.681 357.585 182.536 349.961 182.02 342.652C181.505 335.343 179.72 328.146 178.93 320.857C178.356 315.557 178.309 310.226 178.263 304.904C178.253 303.785 178.274 302.58 179.03 301.677C179.944 300.586 181.618 300.285 183.101 299.9C191.431 297.736 196.961 290.91 200.925 284.15C203.572 279.635 205.874 274.701 205.363 269.648C204.853 264.595 200.698 259.504 194.925 258.988C190.166 258.564 185.772 261.206 182.339 264.119C173.679 271.512 168.113 281.236 166.536 291.728C165.783 296.866 165.999 302.144 164.4 307.132C160.987 317.782 150.308 324.311 144.986 333.895C139.122 344.454 142.358 356.442 149.483 365.785Z" fill="#A0616A"/>
<path d="M306.633 325.098C305.419 327.568 303.651 329.8 301.433 331.663C299.216 333.526 296.594 334.981 293.722 335.943C290.153 337.197 286.216 337.407 282.499 336.544C280.655 336.097 278.954 335.285 277.528 334.169C276.102 333.054 274.989 331.667 274.276 330.115C273.708 328.552 273.396 326.926 273.35 325.286C272.816 318.104 273.023 310.703 276.007 303.995C277.158 301.408 278.709 298.954 279.618 296.295C280.654 293.261 280.819 290.06 280.978 286.896L281.959 267.3C282.121 265.878 282.008 264.441 281.626 263.051C280.647 260.216 277.616 258.373 274.835 256.682C268.117 252.599 261.48 247.833 258.225 241.271C257.229 239.263 256.571 237.031 257.077 234.888C257.995 230.996 262.487 228.477 266.927 227.629C269.832 227.073 272.835 227.038 275.756 227.524C278.677 228.011 281.455 229.009 283.923 230.46C286.391 231.91 288.498 233.782 290.116 235.963C291.734 238.144 292.831 240.588 293.34 243.15C293.779 245.361 293.773 247.62 294.03 249.853C294.575 254.59 296.296 259.157 297.372 263.824C300.023 275.321 298.649 287.205 301.271 298.7C303.462 308.311 311.727 314.582 306.633 325.098Z" fill="#A0616A"/>
<path d="M266.583 207.323H191.704C188.661 207.323 185.744 208.38 183.593 210.26C181.442 212.141 180.233 214.691 180.233 217.351V221.023H179.42V229.235H180.233V234.984H179.42V239.911H180.233V300.505C180.233 303.164 181.442 305.715 183.593 307.595C185.744 309.476 188.661 310.532 191.704 310.532H266.583C269.625 310.532 272.542 309.476 274.694 307.595C276.845 305.715 278.053 303.164 278.053 300.505V217.351C278.053 214.691 276.845 212.141 274.694 210.26C272.542 208.38 269.625 207.323 266.583 207.323Z" fill="#3F3D56"/>
<path d="M230.145 251.408C235.333 251.408 239.539 247.731 239.539 243.196C239.539 238.66 235.333 234.983 230.145 234.983C224.957 234.983 220.752 238.66 220.752 243.196C220.752 247.731 224.957 251.408 230.145 251.408Z" fill="#D0CDE1"/>
<path d="M406.325 190C396.372 190 386.642 192.58 378.366 197.414C370.09 202.249 363.64 209.12 359.831 217.159C356.022 225.198 355.025 234.044 356.967 242.578C358.909 251.112 363.702 258.951 370.74 265.104C377.778 271.257 386.745 275.447 396.507 277.145C406.269 278.842 416.388 277.971 425.584 274.641C434.779 271.311 442.639 265.672 448.169 258.437C453.698 251.202 456.65 242.696 456.65 233.995C456.65 228.217 455.348 222.497 452.819 217.159C450.29 211.821 446.583 206.971 441.91 202.886C437.237 198.801 431.689 195.56 425.584 193.349C419.478 191.138 412.934 190 406.325 190ZM431.196 222.837C431.223 223.312 431.236 223.798 431.236 224.285C431.236 239.128 418.327 256.242 394.695 256.242C387.722 256.255 380.896 254.492 375.052 251.167C376.068 251.273 377.091 251.328 378.114 251.329C383.896 251.338 389.513 249.644 394.058 246.52C391.379 246.476 388.782 245.701 386.631 244.303C384.48 242.904 382.883 240.953 382.064 238.722C382.858 238.862 383.666 238.932 384.476 238.931C385.617 238.931 386.754 238.798 387.856 238.537C384.949 238.023 382.336 236.647 380.459 234.64C378.582 232.634 377.557 230.121 377.557 227.529V227.39C379.341 228.267 381.343 228.748 383.389 228.792C380.667 227.206 378.739 224.772 377.997 221.986C377.256 219.201 377.758 216.273 379.399 213.799C382.618 217.271 386.637 220.111 391.196 222.133C395.754 224.156 400.749 225.315 405.854 225.537C405.629 224.697 405.518 223.838 405.523 222.976C405.52 220.724 406.292 218.524 407.739 216.662C409.186 214.799 411.241 213.361 413.636 212.533C416.031 211.706 418.656 211.527 421.168 212.022C423.681 212.516 425.965 213.66 427.724 215.305C430.6 214.814 433.357 213.893 435.875 212.582C434.917 215.183 432.91 217.39 430.229 218.793C432.772 218.523 435.255 217.926 437.598 217.02C435.876 219.276 433.708 221.246 431.196 222.837Z" fill="#3F3D56"/>
<path d="M561.169 102C536.228 102 516 119.689 516 141.506C516 158.961 528.941 173.769 546.892 178.994C549.146 179.359 549.877 178.135 549.877 177.094V169.74C537.312 172.13 534.696 165.078 534.696 165.078C532.641 160.512 529.679 159.297 529.679 159.297C525.58 156.844 529.991 156.897 529.991 156.897C534.527 157.173 536.913 160.969 536.913 160.969C540.941 167.007 547.479 165.262 550.057 164.252C550.46 161.7 551.631 159.955 552.925 158.971C542.894 157.967 532.347 154.579 532.347 139.445C532.347 135.129 534.113 131.606 537 128.841C536.533 127.844 534.986 123.824 537.44 118.385C537.44 118.385 541.234 117.325 549.865 122.434C553.467 121.559 557.329 121.121 561.169 121.104C565.008 121.121 568.874 121.559 572.484 122.434C581.107 117.325 584.894 118.385 584.894 118.385C587.352 123.827 585.805 127.847 585.338 128.841C588.236 131.606 589.986 135.132 589.986 139.445C589.986 154.619 579.421 157.96 569.363 158.938C570.982 160.163 572.461 162.566 572.461 166.253V177.094C572.461 178.145 573.184 179.379 575.476 178.991C593.412 173.759 606.337 158.955 606.337 141.506C606.337 119.689 586.113 102 561.169 102Z" fill="black"/>
<path d="M535 223.25V278.75H609V223.25H535ZM555.421 247.698L541.167 265.31V236.148L555.421 247.698ZM542.653 229.417H601.344L572 253.198L542.653 229.417ZM560.209 251.58L572 261.135L583.809 251.564L601.113 272.583H543.211L560.209 251.58ZM588.601 247.682L602.833 236.148V264.971L588.601 247.682Z" fill="black"/>
</g>
<defs>
<clipPath id="clip0">
<rect width="677" height="541" fill="white"/>
</clipPath>
</defs>
</svg>
